# xmcd
# Copyright (C) 1995-1998 Ti Kan
#
# Track frame offsets:
#       150
#       18446
#       33845
#       56081
#       74482
#       77125
#       91442
#       106608
#       127715
#       143116
#       160494
#       179107
#
# Disc length: 2519 seconds
#
# Revision: 0
# Processed by: cddbd v1.5.2PL0 Copyright (c) Steve Scherf et al.
# Submitted via: CD-Import v1.0
#
DISCID=9e09d50c
DTITLE=The Sinful Saints - No Scar So Far
DYEAR=09
DGENRE=
TTITLE0=No Regrets
TTITLE1=Dumb Cracked Bees
TTITLE2=Confusion In My Soul
TTITLE3=Righteous One
TTITLE4=Tomatos From Heaven
TTITLE5=Yell At Me
TTITLE6=Waitin' For The Nighttime
TTITLE7=Suspeed Your Mind
TTITLE8=Enjoy The Enemy
TTITLE9=Supernova
TTITLE10=Someone Else
TTITLE11=Little Man
EXTD=
EXTT0=
EXTT1=
EXTT2=
EXTT3=
EXTT4=
EXTT5=
EXTT6=
EXTT7=
EXTT8=
EXTT9=
EXTT10=
EXTT11=
PLAYORDER=
